<svg width="873" height="480" viewBox="0 0 873 480" fill="none" xmlns="http://www.w3.org/2000/svg">
<path d="M439.021 168.821C477.799 168.821 509.234 137.38 509.234 98.5944C509.234 59.8092 477.799 28.3675 439.021 28.3675C400.244 28.3675 368.808 59.8092 368.808 98.5944C368.808 137.38 400.244 168.821 439.021 168.821Z" fill="#FEB8B8"/>
<path d="M504.601 38.0085C494.103 20.9589 477.672 8.39566 458.468 2.73723L449.849 9.0287V0.85941C445.237 0.153412 440.569 -0.11856 435.906 0.0470742L428.47 6.77721V0.606217C417.459 1.97475 406.851 5.61029 397.315 11.2836C387.779 16.9569 379.522 24.5449 373.064 33.5691C356.914 56.8558 354.188 89.2527 370.072 112.726C374.432 99.3229 379.725 86.7467 384.086 73.3446C387.513 73.8119 390.987 73.8288 394.418 73.3947L399.723 61.0135L401.205 72.8708C417.649 71.4384 442.038 68.292 457.626 65.4096L456.11 56.3129L465.18 63.8717C469.955 62.7723 472.791 61.7745 472.557 61.0123C484.15 79.7066 498.339 91.6465 509.931 110.341C514.335 83.9807 519.403 62.0628 504.601 38.0085Z" fill="#2F2E41"/>
<path d="M590.03 279.186C587.615 264.657 585.125 249.85 578.374 236.762C573.937 228.189 566.894 220.02 557.399 218.325C555.529 218.158 553.691 217.732 551.938 217.06C549.156 215.72 511.772 194.375 505.83 190.657C500.728 187.465 492.675 181.556 488.614 181.556C484.529 181.466 468.864 185.113 407.722 180.332C407.722 180.332 390.925 186.954 377.929 194.983C377.732 194.854 314.469 228.832 312.092 228.743C307.591 228.553 303.407 231.436 300.827 235.065C298.247 238.695 297.037 243.189 295.77 247.533C309.588 278.311 322.23 309.128 336.049 339.906C336.696 341.065 337.04 342.369 337.049 343.696C336.771 345.074 336.183 346.371 335.33 347.487C328.553 358.375 328.768 372.07 329.509 384.866C330.25 397.663 331.166 411.18 325.448 422.65C323.893 425.8 321.87 428.682 320.391 431.831C316.927 438.963 315.675 461.775 317.698 469.438L571.184 476.701C565.734 461.716 590.03 279.186 590.03 279.186Z" fill="#81A1C1"/>
<path d="M273.859 341.27C273.353 344.93 273.302 348.638 273.708 352.31L277.341 404.496C277.682 409.415 278.017 414.321 278.479 419.228C279.351 428.75 280.653 438.196 282.269 447.628C282.306 448.967 282.872 450.237 283.844 451.16C284.815 452.082 286.113 452.581 287.452 452.547C303.445 455.931 319.968 455.796 336.29 454.874C361.197 453.484 424.916 450.853 428.809 445.795C432.702 440.737 430.434 432.555 425.358 428.465C420.282 424.375 336.194 414.404 336.194 414.404C337.016 407.892 339.494 401.759 341.845 395.576C346.069 384.609 350.013 373.283 350.089 361.535C350.165 349.787 345.74 337.436 336.118 330.706C328.204 325.181 318.014 324.156 308.369 324.383C301.352 324.585 289.228 322.903 282.819 325.648C277.747 327.882 274.807 336.303 273.859 341.27Z" fill="#FBBEBE"/>
<path d="M295.039 248.47C293.808 249.76 292.853 251.287 292.233 252.96C282.014 275.995 275.978 300.667 274.407 325.82C274.435 327.046 274.152 328.26 273.586 329.348C273.027 330.072 272.405 330.745 271.727 331.358C271.136 332.059 270.689 332.869 270.411 333.743C270.133 334.616 270.03 335.536 270.108 336.45C270.185 337.363 270.442 338.252 270.863 339.066C271.284 339.881 271.861 340.604 272.562 341.195C272.677 341.292 272.795 341.385 272.916 341.475C275.002 337.548 279.995 336.265 284.434 335.924C305.685 334.242 326.444 344.131 347.759 343.385C346.256 338.187 344.093 333.193 342.866 327.933C337.442 304.577 350.97 279.149 342.677 256.653C341.02 252.151 338.252 247.725 333.89 245.753C332.084 245.024 330.195 244.524 328.265 244.263C322.879 243.29 312.157 239.13 306.95 240.799C305.027 241.419 304.269 243.226 302.676 244.319C300.256 245.865 297.045 246.434 295.039 248.47Z" fill="#81A1C1"/>
<path d="M590.181 325.648C583.772 322.903 571.648 324.585 564.63 324.383C554.986 324.156 544.796 325.181 536.881 330.706C527.26 337.436 522.835 349.787 522.911 361.535C522.987 373.283 526.931 384.609 531.154 395.576C533.506 401.759 535.984 407.892 536.806 414.404C536.806 414.404 452.718 424.375 447.642 428.465C442.566 432.555 440.297 440.737 444.19 445.795C448.083 450.853 569.555 455.931 585.548 452.547C586.887 452.581 588.185 452.082 589.156 451.16C590.128 450.237 590.694 448.967 590.731 447.628C592.347 438.196 593.649 428.75 594.521 419.228C594.982 414.321 595.318 409.415 595.659 404.496L599.292 352.31C599.697 348.638 599.646 344.93 599.141 341.27C598.193 336.303 595.253 327.882 590.181 325.648Z" fill="#FBBEBE"/>
<path d="M570.324 244.319C568.731 243.226 567.973 241.419 566.05 240.799C560.843 239.13 550.121 243.29 544.735 244.263C542.805 244.524 540.915 245.024 539.11 245.753C534.748 247.725 531.98 252.151 530.323 256.653C522.03 279.149 535.558 304.577 530.134 327.933C528.907 333.193 526.744 338.187 525.24 343.385C546.556 344.131 567.315 334.242 588.566 335.924C593.005 336.265 597.998 337.548 600.084 341.475C600.205 341.385 600.323 341.292 600.438 341.195C601.139 340.604 601.716 339.881 602.137 339.067C602.558 338.252 602.815 337.363 602.892 336.45C602.97 335.536 602.867 334.617 602.589 333.743C602.311 332.869 601.864 332.059 601.273 331.358C600.595 330.745 599.973 330.072 599.414 329.348C598.848 328.26 598.565 327.046 598.593 325.82C597.022 300.667 590.986 275.995 580.767 252.96C580.147 251.287 579.192 249.76 577.961 248.47C575.955 246.434 572.744 245.865 570.324 244.319Z" fill="#81A1C1"/>
<path d="M418.226 455.039C428.692 455.039 437.177 446.553 437.177 436.085C437.177 425.617 428.692 417.13 418.226 417.13C407.76 417.13 399.276 425.617 399.276 436.085C399.276 446.553 407.76 455.039 418.226 455.039Z" fill="#FBBEBE"/>
<path d="M460.188 455.039C470.654 455.039 479.139 446.553 479.139 436.085C479.139 425.617 470.654 417.13 460.188 417.13C449.722 417.13 441.238 425.617 441.238 436.085C441.238 446.553 449.722 455.039 460.188 455.039Z" fill="#FBBEBE"/>
<path d="M577.165 478.796H316.814C313.774 478.792 310.86 477.583 308.71 475.433C306.561 473.284 305.352 470.369 305.348 467.329V309.349C305.352 306.309 306.561 303.395 308.71 301.245C310.86 299.095 313.774 297.886 316.814 297.883H577.165C580.205 297.886 583.119 299.095 585.268 301.245C587.418 303.395 588.627 306.309 588.63 309.349V467.329C588.627 470.369 587.418 473.284 585.268 475.433C583.119 477.583 580.205 478.792 577.165 478.796Z" fill="#3F3D56"/>
<path d="M374.456 124.769C363.174 124.769 354.028 114.879 354.028 102.678V91.6323C354.028 79.4315 363.174 69.5409 374.456 69.5409V124.769H374.456Z" fill="#81A1C1"/>
<path d="M504.839 69.541C516.12 69.541 525.266 79.4316 525.266 91.6323V102.678C525.266 114.879 516.12 124.769 504.839 124.769V69.541Z" fill="#81A1C1"/>
<path d="M515.543 93.3681H512.302C512.302 48.9159 478.861 12.7512 437.756 12.7512C396.652 12.7512 363.211 48.9159 363.211 93.3681H359.97C359.97 46.9831 394.865 9.24619 437.756 9.24619C480.648 9.24621 515.543 46.9831 515.543 93.3681Z" fill="#81A1C1"/>
</svg>
